<svg xmlns="http://www.w3.org/2000/svg" width="23.968" height="19.176" viewBox="0 0 23.968 19.176">
  <path id="Icon_awesome-user-edit" data-name="Icon awesome-user-edit" d="M8.389,9.588A4.794,4.794,0,1,0,3.6,4.794,4.793,4.793,0,0,0,8.389,9.588Zm3.356,1.2h-.625a6.519,6.519,0,0,1-5.461,0H5.034A5.035,5.035,0,0,0,0,15.82v1.558a1.8,1.8,0,0,0,1.8,1.8h10.3a1.8,1.8,0,0,1-.1-.8l.255-2.281.045-.416.3-.3,2.9-2.9a4.982,4.982,0,0,0-3.741-1.7Zm1.7,5.442-.255,2.285a.6.6,0,0,0,.659.659l2.281-.255,5.165-5.165-2.685-2.685-5.165,5.161Zm10.266-6.157L22.288,8.651a.9.9,0,0,0-1.266,0l-1.416,1.416-.154.154,2.689,2.685,1.565-1.565a.9.9,0,0,0,0-1.27Z" fill="#4867ae"/>
</svg>
