<svg xmlns="http://www.w3.org/2000/svg" width="56" height="56" viewBox="0 0 56 56">
  <g id="email-add" transform="translate(-0.489 -0.475)">
    <circle id="Ellipse_56" data-name="Ellipse 56" cx="28" cy="28" r="28" transform="translate(0.489 0.475)" fill="#4867ae"/>
    <g id="add" transform="translate(20.908 23.519)">
      <path id="Path_147" data-name="Path 147" d="M27.364,12.814V3.11A3.109,3.109,0,0,0,24.255,0H3.11A3.109,3.109,0,0,0,0,3.11V14.3a3.109,3.109,0,0,0,3.11,3.11H27.364ZM2.488,3.072,13.682,8.3,24.877,3.072V5.137L14.341,10.05a1.53,1.53,0,0,1-1.318,0L2.488,5.137Z" transform="translate(-6 -4)" fill="#fff"/>
      <g id="Path_148" data-name="Path 148" transform="translate(2.247 -4.002)" fill="#fff">
        <path d="M 16.957275390625 23.91455459594727 C 13.12101554870605 23.91455459594727 9.999995231628418 20.79353523254395 9.999995231628418 16.957275390625 C 9.999995231628418 13.12101554870605 13.12101554870605 9.999995231628418 16.957275390625 9.999995231628418 C 20.79353523254395 9.999995231628418 23.91455459594727 13.12101554870605 23.91455459594727 16.957275390625 C 23.91455459594727 20.79353523254395 20.79353523254395 23.91455459594727 16.957275390625 23.91455459594727 Z" stroke="none"/>
        <path d="M 16.957275390625 10.99999618530273 C 13.67252540588379 10.99999618530273 10.99999618530273 13.67252540588379 10.99999618530273 16.957275390625 C 10.99999618530273 20.24202537536621 13.67252540588379 22.91455459594727 16.957275390625 22.91455459594727 C 20.24202537536621 22.91455459594727 22.91455459594727 20.24202537536621 22.91455459594727 16.957275390625 C 22.91455459594727 13.67252540588379 20.24202537536621 10.99999618530273 16.957275390625 10.99999618530273 M 19.24853515625 17.87377548217773 L 17.87377548217773 17.87377548217773 L 17.87377548217773 19.24853515625 C 17.87377548217773 19.75444412231445 17.46318626403809 20.16503524780273 16.957275390625 20.16503524780273 C 16.45136451721191 20.16503524780273 16.04077529907227 19.75444412231445 16.04077529907227 19.24853515625 L 16.04077529907227 17.87377548217773 L 14.666015625 17.87377548217773 C 14.16010475158691 17.87377548217773 13.74951553344727 17.46318626403809 13.74951553344727 16.957275390625 C 13.74951553344727 16.45136451721191 14.16010475158691 16.04077529907227 14.666015625 16.04077529907227 L 16.04077529907227 16.04077529907227 L 16.04077529907227 14.666015625 C 16.04077529907227 14.16010475158691 16.45136451721191 13.74951553344727 16.957275390625 13.74951553344727 C 17.46318626403809 13.74951553344727 17.87377548217773 14.16010475158691 17.87377548217773 14.666015625 L 17.87377548217773 16.04077529907227 L 19.24853515625 16.04077529907227 C 19.75444412231445 16.04077529907227 20.16503524780273 16.45136451721191 20.16503524780273 16.957275390625 C 20.16503524780273 17.46318626403809 19.75444412231445 17.87377548217773 19.24853515625 17.87377548217773 M 16.957275390625 8.999996185302734 C 21.34493637084961 8.999996185302734 24.91455459594727 12.56961631774902 24.91455459594727 16.957275390625 C 24.91455459594727 21.34493637084961 21.34493637084961 24.91455459594727 16.957275390625 24.91455459594727 C 12.56961631774902 24.91455459594727 8.999996185302734 21.34493637084961 8.999996185302734 16.957275390625 C 8.999996185302734 12.56961631774902 12.56961631774902 8.999996185302734 16.957275390625 8.999996185302734 Z" stroke="none" fill="#4867ae"/>
      </g>
    </g>
  </g>
</svg>
