<svg xmlns="http://www.w3.org/2000/svg" xmlns:xlink="http://www.w3.org/1999/xlink" width="874" height="36" viewBox="0 0 874 36">
  <defs>
    <linearGradient id="linear-gradient" x1="0.5" x2="0.5" y2="1" gradientUnits="objectBoundingBox">
      <stop offset="0" stop-color="#17a454"/>
      <stop offset="0.502" stop-color="#1490c4" stop-opacity="0.831"/>
      <stop offset="1" stop-color="#4867ae"/>
    </linearGradient>
  </defs>
  <g id="Group_337" data-name="Group 337" transform="translate(-140 -544)">
    <g id="Group_340" data-name="Group 340">
      <rect id="Rectangle_159" data-name="Rectangle 159" width="10" height="871" transform="translate(1011 557) rotate(90)" fill="url(#linear-gradient)"/>
      <g id="Group_307" data-name="Group 307">
        <rect id="Rectangle_165" data-name="Rectangle 165" width="10" height="3" transform="translate(641 557) rotate(90)" fill="#fff"/>
        <rect id="Rectangle_166" data-name="Rectangle 166" width="10" height="3" transform="translate(765 557) rotate(90)" fill="#fff"/>
        <rect id="Rectangle_167" data-name="Rectangle 167" width="10" height="3" transform="translate(1014 557) rotate(90)" fill="#fff"/>
        <rect id="Rectangle_168" data-name="Rectangle 168" width="10" height="3" transform="translate(890 557) rotate(90)" fill="#fff"/>
        <rect id="Rectangle_174" data-name="Rectangle 174" width="10" height="3" transform="translate(267 557) rotate(90)" fill="#fff"/>
        <rect id="Rectangle_175" data-name="Rectangle 175" width="10" height="3" transform="translate(392 557) rotate(90)" fill="#fff"/>
        <rect id="Rectangle_176" data-name="Rectangle 176" width="10" height="3" transform="translate(516 557) rotate(90)" fill="#fff"/>
      </g>
    </g>
    <rect id="Rectangle_186" data-name="Rectangle 186" width="10" height="625" transform="translate(1011 557) rotate(90)" fill="#c8c8c8"/>
    <g id="Group_307-2" data-name="Group 307">
      <rect id="Rectangle_165-2" data-name="Rectangle 165" width="10" height="3" transform="translate(641 557) rotate(90)" fill="#fff"/>
      <rect id="Rectangle_166-2" data-name="Rectangle 166" width="10" height="3" transform="translate(765 557) rotate(90)" fill="#fff"/>
      <rect id="Rectangle_167-2" data-name="Rectangle 167" width="10" height="3" transform="translate(1014 557) rotate(90)" fill="#fff"/>
      <rect id="Rectangle_168-2" data-name="Rectangle 168" width="10" height="3" transform="translate(890 557) rotate(90)" fill="#fff"/>
      <rect id="Rectangle_174-2" data-name="Rectangle 174" width="10" height="3" transform="translate(267 557) rotate(90)" fill="#fff"/>
      <rect id="Rectangle_175-2" data-name="Rectangle 175" width="10" height="3" transform="translate(392 557) rotate(90)" fill="#fff"/>
      <rect id="Rectangle_176-2" data-name="Rectangle 176" width="10" height="3" transform="translate(516 557) rotate(90)" fill="#fff"/>
    </g>
    <g id="Group_304" data-name="Group 304" transform="translate(702.969 -174.031)">
      <g id="Ellipse_55" data-name="Ellipse 55" transform="translate(275.031 718.031)" fill="#fff" stroke="#c8c8c8" stroke-width="3">
        <circle cx="18" cy="18" r="18" stroke="none"/>
        <circle cx="18" cy="18" r="16.5" fill="none"/>
      </g>
      <path id="Icon_awesome-star" data-name="Icon awesome-star" d="M7.205.429l-1.576,3.2L2.1,4.139a.773.773,0,0,0-.427,1.318L4.227,7.943l-.6,3.512a.772.772,0,0,0,1.12.813L7.9,10.61l3.155,1.658a.773.773,0,0,0,1.12-.813l-.6-3.512L14.12,5.457a.773.773,0,0,0-.427-1.318l-3.526-.514L8.591.429a.773.773,0,0,0-1.385,0Z" transform="translate(284.948 730.203)" fill="#c8c8c8" stroke="#c8c8c8" stroke-width="1.5"/>
    </g>
    <g id="Group_305" data-name="Group 305" transform="translate(92.817 -174.183)">
      <g id="Ellipse_55-2" data-name="Ellipse 55" transform="translate(275.183 718.183)" fill="#fff" stroke="#4088c0" stroke-width="3">
        <circle cx="18" cy="18" r="18" stroke="none"/>
        <circle cx="18" cy="18" r="16.5" fill="none"/>
      </g>
      <path id="Icon_awesome-user-alt" data-name="Icon awesome-user-alt" d="M6.2,7.266A3.563,3.563,0,0,0,9.687,3.633,3.563,3.563,0,0,0,6.2,0,3.563,3.563,0,0,0,2.712,3.633,3.563,3.563,0,0,0,6.2,7.266Zm3.1.807H7.965a4.062,4.062,0,0,1-3.531,0H3.1A3.166,3.166,0,0,0,0,11.3v.4a1.188,1.188,0,0,0,1.162,1.211H11.237A1.188,1.188,0,0,0,12.4,11.706v-.4A3.166,3.166,0,0,0,9.3,8.073Z" transform="translate(286.737 729.724)" fill="#4088c0"/>
    </g>
  </g>
</svg>
