<svg xmlns="http://www.w3.org/2000/svg" width="51.084" height="30.651" viewBox="0 0 51.084 30.651">
  <path id="Icon_awesome-graduation-cap" data-name="Icon awesome-graduation-cap" d="M49.675,11.62,27.41,4.779a6.376,6.376,0,0,0-3.735,0L1.41,11.62a1.879,1.879,0,0,0,0,3.639l3.882,1.193a6.29,6.29,0,0,0-1.427,3.744,2.463,2.463,0,0,0-.2,4.232L1.623,33.6a1.277,1.277,0,0,0,1.246,1.554H7.347A1.277,1.277,0,0,0,8.594,33.6l-2.038-9.17a2.457,2.457,0,0,0-.144-4.192A3.765,3.765,0,0,1,8.064,17.3l15.61,4.8a6.384,6.384,0,0,0,3.735,0L49.675,15.26a1.88,1.88,0,0,0,0-3.64ZM28.16,24.542a8.935,8.935,0,0,1-5.235,0L11.349,20.986l-1.132,9.056c0,2.822,6.861,5.108,15.325,5.108s15.325-2.287,15.325-5.108l-1.132-9.057L28.16,24.542Z" transform="translate(0 -4.5)" fill="#4867ae"/>
</svg>
