<svg xmlns="http://www.w3.org/2000/svg" width="53.444" height="41.559" viewBox="0 0 53.444 41.559">
  <path id="Icon_awesome-home" data-name="Icon awesome-home" d="M26.012,13.035,8.907,27.123V42.328a1.484,1.484,0,0,0,1.484,1.484l10.4-.027A1.484,1.484,0,0,0,22.265,42.3v-8.88a1.484,1.484,0,0,1,1.484-1.484h5.938a1.484,1.484,0,0,1,1.484,1.484V42.3a1.484,1.484,0,0,0,1.484,1.489l10.393.029a1.484,1.484,0,0,0,1.484-1.484V27.113l-17.1-14.078A1.131,1.131,0,0,0,26.012,13.035Zm27.019,9.575-7.756-6.393V3.367a1.113,1.113,0,0,0-1.113-1.113h-5.2a1.113,1.113,0,0,0-1.113,1.113V10.1L29.547,3.269a4.453,4.453,0,0,0-5.659,0L.4,22.611a1.113,1.113,0,0,0-.148,1.568L2.62,27.055a1.113,1.113,0,0,0,1.569.151L26.012,9.231a1.131,1.131,0,0,1,1.419,0L49.256,27.206a1.113,1.113,0,0,0,1.568-.148l2.366-2.876a1.113,1.113,0,0,0-.158-1.571Z" transform="translate(0.001 -2.254)" fill="#4867ae"/>
</svg>
