<svg xmlns="http://www.w3.org/2000/svg" width="44.612" height="44.614" viewBox="0 0 44.612 44.614">
  <path id="Icon_awesome-tools" data-name="Icon awesome-tools" d="M43.661,34.476l-10.2-10.2a6.469,6.469,0,0,0-7.441-1.211l-9.288-9.288V8.364L5.577,0,0,5.576,8.365,16.729h5.411l9.288,9.288a6.483,6.483,0,0,0,1.211,7.441l10.2,10.2a3.239,3.239,0,0,0,4.592,0l4.592-4.592a3.255,3.255,0,0,0,0-4.592ZM28.9,19.6a9.167,9.167,0,0,1,6.526,2.7L37.117,24a12.333,12.333,0,0,0,3.816-2.57,12.53,12.53,0,0,0,3.3-11.91,1.043,1.043,0,0,0-1.751-.479L36,15.517l-5.916-.985L29.1,8.617l6.482-6.482a1.052,1.052,0,0,0-.5-1.76,12.551,12.551,0,0,0-11.9,3.3A12.347,12.347,0,0,0,19.6,12.7l7.153,7.153A9.492,9.492,0,0,1,28.9,19.6Zm-9.053,7.144-4.94-4.94L1.63,35.1A5.576,5.576,0,0,0,9.515,42.98L20.284,32.211a9.356,9.356,0,0,1-.436-5.463ZM5.577,41.124a2.091,2.091,0,1,1,2.091-2.091A2.1,2.1,0,0,1,5.577,41.124Z" transform="translate(0.004)" fill="#4867ae"/>
</svg>
