<svg id="Icon_ionic-ios-chatbubbles" data-name="Icon ionic-ios-chatbubbles" xmlns="http://www.w3.org/2000/svg" width="54.328" height="54.328" viewBox="0 0 54.328 54.328">
  <path id="Path_148" data-name="Path 148" d="M49.276,38.975a3.164,3.164,0,0,1,.431-1.593,4.4,4.4,0,0,1,.274-.4,21.161,21.161,0,0,0,3.6-11.793C53.625,13.144,43.464,3.375,30.9,3.375c-10.957,0-20.1,7.457-22.24,17.356A20.987,20.987,0,0,0,8.177,25.2,22.153,22.153,0,0,0,30.509,47.281a26.9,26.9,0,0,0,6.164-1.006c1.476-.4,2.938-.94,3.317-1.084A3.453,3.453,0,0,1,41.2,44.97a3.4,3.4,0,0,1,1.319.261l7.4,2.625a1.766,1.766,0,0,0,.509.131,1.039,1.039,0,0,0,1.045-1.045,1.678,1.678,0,0,0-.065-.353Z" transform="translate(0.742 -3.375)" fill="#fff"/>
  <path id="Path_149" data-name="Path 149" d="M38.7,40.2c-.47.131-1.071.274-1.724.418a24.1,24.1,0,0,1-4.44.588A22.153,22.153,0,0,1,10.205,19.119a24.691,24.691,0,0,1,.2-2.795c.078-.562.17-1.123.3-1.672.131-.588.287-1.175.457-1.75l-1.045.927A19.435,19.435,0,0,0,3.375,28.443,19.218,19.218,0,0,0,6.614,39.152c.3.457.47.81.418,1.045s-1.554,8.1-1.554,8.1A1.048,1.048,0,0,0,5.83,49.3a1.064,1.064,0,0,0,.666.235.937.937,0,0,0,.379-.078L14.2,46.57a2.041,2.041,0,0,1,1.567.026A21.98,21.98,0,0,0,23.7,48.163a20.511,20.511,0,0,0,15.685-7.2s.418-.575.9-1.254C39.8,39.883,39.25,40.053,38.7,40.2Z" transform="translate(-3.375 4.793)" fill="#fff"/>
</svg>
