<svg xmlns="http://www.w3.org/2000/svg" width="58.41" height="40.437" viewBox="0 0 58.41 40.437">
  <g id="Icon_ionic-ios-mail" data-name="Icon ionic-ios-mail" transform="translate(-3.375 -7.875)">
    <path id="Path_158" data-name="Path 158" d="M61.307,10.4,46.2,25.789a.271.271,0,0,0,0,.393L56.772,37.443a1.822,1.822,0,0,1,0,2.584,1.83,1.83,0,0,1-2.584,0L43.658,28.808a.288.288,0,0,0-.407,0l-2.569,2.612a11.3,11.3,0,0,1-8.059,3.4,11.532,11.532,0,0,1-8.228-3.5l-2.471-2.513a.288.288,0,0,0-.407,0L10.985,40.026a1.83,1.83,0,0,1-2.584,0,1.822,1.822,0,0,1,0-2.584L18.974,26.182a.3.3,0,0,0,0-.393L3.852,10.4a.277.277,0,0,0-.477.2V41.388a4.506,4.506,0,0,0,4.493,4.493H57.292a4.506,4.506,0,0,0,4.493-4.493V10.6A.281.281,0,0,0,61.307,10.4Z" transform="translate(0 2.431)" fill="#4867ae"/>
    <path id="Path_159" data-name="Path 159" d="M31.732,33.584a7.633,7.633,0,0,0,5.49-2.3L59.252,8.858a4.413,4.413,0,0,0-2.78-.983H7.006a4.384,4.384,0,0,0-2.78.983l22.03,22.423A7.634,7.634,0,0,0,31.732,33.584Z" transform="translate(0.848 0)" fill="#4867ae"/>
  </g>
</svg>
