<svg xmlns="http://www.w3.org/2000/svg" width="18.4" height="22.489" viewBox="0 0 18.4 22.489">
  <path id="Icon_material-cake" data-name="Icon material-cake" d="M13.7,6.133a2.044,2.044,0,0,0,2.044-2.044,1.946,1.946,0,0,0-.3-1.053L13.7,0,11.952,3.036a1.946,1.946,0,0,0-.3,1.053A2.05,2.05,0,0,0,13.7,6.133Zm4.7,10.212-1.094-1.094-1.1,1.094a3.622,3.622,0,0,1-5,0l-1.094-1.094L9,16.345A3.511,3.511,0,0,1,6.5,17.378a3.552,3.552,0,0,1-2-.624v4.712a1.025,1.025,0,0,0,1.022,1.022H21.878A1.025,1.025,0,0,0,22.9,21.467V16.754a3.552,3.552,0,0,1-2,.624A3.511,3.511,0,0,1,18.4,16.345ZM19.833,9.2H14.722V7.156H12.678V9.2H7.567A3.063,3.063,0,0,0,4.5,12.267v1.574a2.007,2.007,0,0,0,2,2,1.962,1.962,0,0,0,1.411-.583L10.1,13.084l2.177,2.177a2.05,2.05,0,0,0,2.832,0L17.3,13.084l2.177,2.177a1.979,1.979,0,0,0,1.411.583,2.007,2.007,0,0,0,2-2V12.267A3.047,3.047,0,0,0,19.833,9.2Z" transform="translate(-4.5)" fill="#4867ae"/>
</svg>
