<svg xmlns="http://www.w3.org/2000/svg" width="28.589" height="27.363" viewBox="0 0 28.589 27.363">
  <path id="Icon_awesome-star" data-name="Icon awesome-star" d="M13.856.951,10.367,8.026,2.56,9.165a1.711,1.711,0,0,0-.946,2.918l5.648,5.5L5.926,25.361a1.709,1.709,0,0,0,2.48,1.8l6.984-3.671,6.984,3.671a1.71,1.71,0,0,0,2.479-1.8l-1.336-7.775,5.648-5.5a1.711,1.711,0,0,0-.946-2.918L20.413,8.026,16.924.951A1.711,1.711,0,0,0,13.856.951Z" transform="translate(-1.096 0.001)" fill="rgba(72,103,174,0.5)"/>
</svg>
