<svg xmlns="http://www.w3.org/2000/svg" width="54.621" height="54.726" viewBox="0 0 54.621 54.726">
  <path id="Icon_feather-phone-call" data-name="Icon feather-phone-call" d="M54.785,42.818V50.6A5.191,5.191,0,0,1,49.127,55.8a51.363,51.363,0,0,1-22.4-7.968A50.61,50.61,0,0,1,11.157,32.255a51.363,51.363,0,0,1-7.968-22.5A5.191,5.191,0,0,1,8.354,4.1H16.14a5.191,5.191,0,0,1,5.191,4.464,33.325,33.325,0,0,0,1.817,7.293,5.191,5.191,0,0,1-1.168,5.476l-3.3,3.3A41.526,41.526,0,0,0,34.256,40.2l3.3-3.3a5.191,5.191,0,0,1,5.476-1.168,33.324,33.324,0,0,0,7.293,1.817A5.191,5.191,0,0,1,54.785,42.818Z" transform="translate(-1.666 -2.595)" fill="#4867ae" stroke="#4867ae" stroke-linecap="round" stroke-linejoin="round" stroke-width="3"/>
</svg>
