<svg xmlns="http://www.w3.org/2000/svg" width="19" height="19" viewBox="0 0 19 19">
  <g id="Group_127" data-name="Group 127" transform="translate(-340.6 -1285.5)">
    <rect id="Rectangle_150" data-name="Rectangle 150" width="19" height="19" rx="9.5" transform="translate(340.6 1285.5)" fill="rgba(107,110,119,0.67)"/>
    <path id="Icon_feather-shield" data-name="Icon feather-shield" d="M10.658,14.644s4.658-2.329,4.658-5.822V4.747L10.658,3,6,4.747V8.822C6,12.315,10.658,14.644,10.658,14.644Z" transform="translate(339.556 1286.63)" fill="#fff"/>
    <path id="Icon_material-attach-money" data-name="Icon material-attach-money" d="M11.618,7.25c-.886-.205-1.17-.418-1.17-.748,0-.379.394-.644,1.053-.644.694,0,.952.3.975.731h.862a1.439,1.439,0,0,0-1.252-1.326V4.5h-1.17v.752c-.757.146-1.365.585-1.365,1.257,0,.8.745,1.2,1.834,1.438.975.209,1.17.515,1.17.839,0,.24-.191.623-1.053.623-.8,0-1.12-.32-1.163-.731H9.48a1.546,1.546,0,0,0,1.436,1.333v.755h1.17v-.748c.761-.129,1.365-.522,1.365-1.236C13.451,7.793,12.5,7.455,11.618,7.25Z" transform="translate(338.555 1287.609)" fill="rgba(107,110,119,0.67)"/>
  </g>
</svg>
