<svg xmlns="http://www.w3.org/2000/svg" width="50" height="50" viewBox="0 0 50 50">
  <g id="Group_21" data-name="Group 21" transform="translate(-448 -232)">
    <circle id="Ellipse_21" data-name="Ellipse 21" cx="25" cy="25" r="25" transform="translate(448 232)" fill="#eceff7"/>
    <g id="Group_10" data-name="Group 10" transform="translate(-281 -181)">
      <path id="Path_1" data-name="Path 1" d="M270.02,45.254,259.644,39.26a.5.5,0,0,0-.5,0L254.946,41.7v1.168l4.447-2.589,9.871,5.7v11.4l-1.48.857-1.249.726v1.158l.624-.363.625-.363,2.236-1.29a.487.487,0,0,0,.252-.432V45.687A.488.488,0,0,0,270.02,45.254Z" transform="translate(495.497 382.808)" fill="#4867ae"/>
      <path id="Path_2" data-name="Path 2" d="M66.587,161.712v-11.4l2.115-1.219.675-.393.585-.333V147.2l-.585.342-.675.393-2.87,1.652a.507.507,0,0,0-.252.433V162a.507.507,0,0,0,.252.432l10.386,5.994a.44.44,0,0,0,.252.07.491.491,0,0,0,.252-.07l6.265-3.616v-1.16l-6.517,3.758Z" transform="translate(678.42 278.478)" fill="#4867ae"/>
      <g id="Group_2" data-name="Group 2" transform="translate(747.122 425.675)">
        <path id="Path_7" data-name="Path 7" d="M163.215,155.507a2.234,2.234,0,0,0,.121-.211.963.963,0,0,0,.1-.232,2.857,2.857,0,0,0,.252-1.209v-.624h-1.259v.624a1.5,1.5,0,0,1-.081.524.8.8,0,0,1-.071.221,1.8,1.8,0,0,1-.4.615,1.888,1.888,0,0,1-.605.4,1.859,1.859,0,0,1-.745.151,3.122,3.122,0,0,0-1.017.171,3.193,3.193,0,0,0-.9.472V147.2l-.585.342-.675.393v11.635h1.259v-.635a1.5,1.5,0,0,1,.04-.372,1.557,1.557,0,0,1,.1-.372,1.928,1.928,0,0,1,.413-.605,1.5,1.5,0,0,1,.191-.162,2.029,2.029,0,0,1,.423-.252,2.04,2.04,0,0,1,1.491,0,2.106,2.106,0,0,1,.605.413,1.753,1.753,0,0,1,.4.605,1.859,1.859,0,0,1,.151.745v.635h1.259v-.635c0-.132-.01-.252-.021-.372a2.989,2.989,0,0,0-.332-1.068,3.077,3.077,0,0,0-.937-1.1A2.986,2.986,0,0,0,163.215,155.507Z" transform="translate(-157.352 -147.197)" fill="#4867ae"/>
        <path id="Path_8" data-name="Path 8" d="M377.053,324.55v6.336h1.239V324.55Z" transform="translate(-369.578 -318.516)" fill="#4867ae"/>
        <path id="Path_9" data-name="Path 9" d="M452.419,326.763a3.133,3.133,0,0,0-.685-1.007,3.276,3.276,0,0,0-1.007-.675,3.124,3.124,0,0,0-2.458,0,3.058,3.058,0,0,0-1.008.675,3.128,3.128,0,0,0-.665.977c-.01.01-.02.021-.02.03a3.07,3.07,0,0,0-.242,1.229v3.173h1.249v-3.173a1.692,1.692,0,0,1,.09-.554.637.637,0,0,1,.061-.181,1.933,1.933,0,0,1,.413-.614,1.905,1.905,0,0,1,.6-.4,1.829,1.829,0,0,1,.745-.151,1.9,1.9,0,0,1,.745.151,1.808,1.808,0,0,1,1.018,1.017,1.783,1.783,0,0,1,.151.735v8.049l.624-.363.625-.363v-7.323A3.07,3.07,0,0,0,452.419,326.763Z" transform="translate(-436.503 -318.786)" fill="#4867ae"/>
      </g>
    </g>
  </g>
</svg>
