<svg xmlns="http://www.w3.org/2000/svg" width="82.8" height="44.943" viewBox="0 0 82.8 44.943">
  <g id="logo" transform="translate(-65.58 -39.192)">
    <path id="Path_1" data-name="Path 1" d="M282.067,50.1,263.4,39.315a.9.9,0,0,0-.906,0L254.946,43.7v2.1l8-4.659L280.708,51.4V71.919l-2.664,1.542L275.8,74.767V76.85l1.123-.653,1.125-.653,4.023-2.32a.877.877,0,0,0,.453-.778V50.878A.878.878,0,0,0,282.067,50.1Z" transform="translate(-177.774)" fill="#4867ae"/>
    <path id="Path_2" data-name="Path 2" d="M67.393,173.313V152.8L71.2,150.6l1.214-.707,1.052-.6v-2.1l-1.052.616-1.214.707-5.165,2.973a.913.913,0,0,0-.453.779V173.84a.912.912,0,0,0,.453.778L84.719,185.4a.792.792,0,0,0,.453.125.883.883,0,0,0,.453-.125L96.9,178.9V176.81l-11.726,6.761Z" transform="translate(0 -101.394)" fill="#4867ae"/>
    <g id="Group_1" data-name="Group 1" transform="translate(106.692 52.093)">
      <path id="Path_3" data-name="Path 3" d="M737.625,328.432a5.7,5.7,0,0,1,3.031-3.02,5.755,5.755,0,0,1,4.429,0,5.915,5.915,0,0,1,1.813,1.218,5.645,5.645,0,0,1,1.231,1.8,5.532,5.532,0,0,1,.445,2.22v5.709h-2.257v-5.709a3.364,3.364,0,0,0-.268-1.332,3.422,3.422,0,0,0-1.838-1.827,3.466,3.466,0,0,0-1.345-.266,3.355,3.355,0,0,0-1.331.266,3.451,3.451,0,0,0-1.827,1.827,3.313,3.313,0,0,0-.268,1.332v5.709h-2.258v-5.709A5.533,5.533,0,0,1,737.625,328.432Z" transform="translate(-737.181 -320.376)" fill="#91949b"/>
      <path id="Path_4" data-name="Path 4" d="M945.054,332.7l1.6,1.6-.787.787a5.69,5.69,0,0,1-8.069,0,5.392,5.392,0,0,1-1.243-1.892,5.907,5.907,0,0,1-.4-2.143,5.816,5.816,0,0,1,.4-2.131,5.422,5.422,0,0,1,1.243-1.877,5.552,5.552,0,0,1,1.893-1.257,5.69,5.69,0,0,1,4.287,0,5.569,5.569,0,0,1,1.89,1.257l.787.787-6.316,6.317a3.382,3.382,0,0,0,3.93-.658Zm-5.658-4.086a3.392,3.392,0,0,0-.658,3.933l.926-.926,1.32-1.319q.7-.7,1.342-1.331t1-.99a3.411,3.411,0,0,0-2.043-.329A3.27,3.27,0,0,0,939.4,328.611Z" transform="translate(-923.97 -320.746)" fill="#91949b"/>
      <path id="Path_5" data-name="Path 5" d="M1122.229,326.224a5.544,5.544,0,0,1,1.89-1.256,5.7,5.7,0,0,1,4.29,0,5.546,5.546,0,0,1,1.89,1.256l.787.787-1.573,1.6-.812-.787a3.351,3.351,0,0,0-1.143-.761,3.411,3.411,0,0,0-2.588,0,3.337,3.337,0,0,0-1.14.761,3.1,3.1,0,0,0-.761,1.116,3.424,3.424,0,0,0,0,2.587,3.473,3.473,0,0,0,3.2,2.158,3.529,3.529,0,0,0,1.32-.254,3.121,3.121,0,0,0,1.117-.761l.812-.787,1.573,1.6-.787.787a5.52,5.52,0,0,1-1.89,1.254,5.7,5.7,0,0,1-4.29,0,5.519,5.519,0,0,1-1.89-1.254,5.4,5.4,0,0,1-1.243-1.878,5.841,5.841,0,0,1,0-4.288A5.389,5.389,0,0,1,1122.229,326.224Z" transform="translate(-1097.109 -319.982)" fill="#91949b"/>
      <path id="Path_6" data-name="Path 6" d="M1313.51,263.637v2.257h-1.117a5.6,5.6,0,0,1-2.206-.442,5.762,5.762,0,0,1-3.058-3.058,5.564,5.564,0,0,1-.445-2.209v-10.25h2.26v6.851h4.566v2.259h-4.566v1.141a3.444,3.444,0,0,0,.265,1.345,3.341,3.341,0,0,0,.735,1.1,3.437,3.437,0,0,0,2.448,1Z" transform="translate(-1271.822 -249.935)" fill="#91949b"/>
    </g>
    <g id="Group_2" data-name="Group 2" transform="translate(71.198 45.803)">
      <path id="Path_7" data-name="Path 7" d="M167.9,162.149a4.017,4.017,0,0,0,.218-.38,1.733,1.733,0,0,0,.181-.418,5.14,5.14,0,0,0,.453-2.175v-1.123h-2.266v1.123a2.69,2.69,0,0,1-.145.943,1.438,1.438,0,0,1-.127.4,3.239,3.239,0,0,1-.724,1.106,3.4,3.4,0,0,1-1.089.725,3.345,3.345,0,0,1-1.341.272,5.617,5.617,0,0,0-1.83.308,5.745,5.745,0,0,0-1.613.85V147.2l-1.052.616-1.214.707v20.934h2.266v-1.143a2.708,2.708,0,0,1,.073-.67,2.8,2.8,0,0,1,.181-.67,3.467,3.467,0,0,1,.744-1.089,2.7,2.7,0,0,1,.344-.291,3.653,3.653,0,0,1,.761-.453,3.671,3.671,0,0,1,2.682,0,3.789,3.789,0,0,1,1.089.744,3.154,3.154,0,0,1,.724,1.089,3.344,3.344,0,0,1,.272,1.34v1.143h2.266v-1.143c0-.237-.019-.453-.037-.67a5.378,5.378,0,0,0-.6-1.921,5.537,5.537,0,0,0-1.686-1.975A5.373,5.373,0,0,0,167.9,162.149Z" transform="translate(-157.352 -147.197)" fill="#4867ae"/>
      <path id="Path_8" data-name="Path 8" d="M377.053,324.55v11.4h2.229v-11.4Z" transform="translate(-363.604 -313.693)" fill="#4867ae"/>
      <path id="Path_9" data-name="Path 9" d="M457.281,328.309a5.636,5.636,0,0,0-1.233-1.813,5.9,5.9,0,0,0-1.811-1.214,5.621,5.621,0,0,0-4.422,0A5.5,5.5,0,0,0,448,326.5a5.628,5.628,0,0,0-1.2,1.759c-.017.019-.036.037-.036.054a5.524,5.524,0,0,0-.435,2.211v5.709h2.247V330.52a3.044,3.044,0,0,1,.163-1,1.145,1.145,0,0,1,.11-.326,3.476,3.476,0,0,1,.742-1.1,3.429,3.429,0,0,1,1.087-.725,3.292,3.292,0,0,1,1.341-.272,3.412,3.412,0,0,1,1.341.272,3.253,3.253,0,0,1,1.831,1.83,3.207,3.207,0,0,1,.272,1.323V345l1.123-.653,1.125-.653V330.52A5.524,5.524,0,0,0,457.281,328.309Z" transform="translate(-428.645 -313.955)" fill="#4867ae"/>
    </g>
  </g>
</svg>
