<svg xmlns="http://www.w3.org/2000/svg" viewBox="0 0 465.25 437.97">
  <defs>
    <style>
      .cls-1 {
        fill: #edf5f7;
      }

      .cls-2 {
        fill: #707a8b;
      }

      .cls-3 {
        fill: #fefefe;
      }

      .cls-4 {
        fill: #edf5f6;
      }

      .cls-5 {
        fill: #fcfdfd;
      }

      .cls-6 {
        fill: #edf5f6;
      }
    </style>
  </defs>
  <title>Asset 2</title>
  <g id="Layer_2" data-name="Layer 2">
    <g id="Layer_1-2" data-name="Layer 1">
      <g>
        <path class="cls-1" d="M17.91,394.93c-2.8-67.61,46-83.91,34-98.69C-36.33,132.76-26.74-26.84,196.16,48.42,106.91,55,53.5,142.73,80.43,222.34,112.51,315.71,228.17,338.27,294,276.52c88.53,89.26,96.9,116.31,128.6,104.47,2.62,58.33-189.25,13.59-225,17.16-15.76-2.45-32.23,17.36-50.77,22.8C105.23,440.29,28.87,455.29,17.91,394.93Z"/>
        <path class="cls-1" d="M246.89,54.87C383.65,13.33,479.18-63,423.91,98.09c-3,5.71,2.35,2.37,7.86,1.75,100.35-17.16-59.84,109.78-29.21,118.1,39,53.19,74.23,82.37,5.65,94.57-29.53-21.63-100.4-60.41-88.75-68C362.1,169.61,321.71,80.17,246.89,54.87Z"/>
        <path class="cls-2" d="M246.89,54.87c39.51,13.12,73.5,47.72,84.63,88.6,21,87.81-30.76,99.71-5.76,112.6,82.58,63.2,128.42,70.32,112.37,109.69-34.38,62.4-109.63-62-136.4-81.81,37.49,17.61,88.24,115.32,120.68,92.79,13.54-7.07,18.79-23,11.78-37-25.92-29.95-64.48-44-95.62-69.28-2.58-2.09-5.1-4.29-7.76-6.25s-5.83-2.94-9-4-6.47-2.41-8.53-5.06c-1.61-9.66,6.3-17.74,9.55-26.22a144.94,144.94,0,0,0,7.32-26.26,133.34,133.34,0,0,0-.77-51.37c-10.72-49.61-51.79-87.92-101.52-97.23C146.94,38.9,77,103.07,77.36,179.89c6.87,126.26,132,156.45,216.61,96.63C219.91,344,107.14,307.18,79.61,219.79,46.71,112.2,148.67,22.31,246.89,54.87Z"/>
        <path class="cls-1" d="M17,395.06c-1.41-.48-2-1.47-1.85-3.51.75,1.51,1.93,2.13,1.85,3.51Z"/>
        <path class="cls-1" d="M160.33,36.61l1.1-2.29c.43,1.22.18,2.06-1.1,2.29Z"/>
        <path class="cls-3" d="M32.6,259.34c-.51,1.26-1.46,2.55.53,3.7-1.28.18-3.66-2.46-.53-3.7Z"/>
        <path class="cls-3" d="M32.6,259.34l.09-.16-.09.16Z"/>
        <path class="cls-4" d="M301.43,139.47c3.12,12.54,7.68,26,7.83,41.62-.26.16-.3,1,.69.55-2.55,8.28-3.05,19.26-5.44,29.67-42.79,113-195.74,84.83-203.17-26.34C99.73,64.07,254.82,37,301.43,139.47Zm-33.57,17.47c-24-31.65-69.2-.75-48.2,32.57C244.76,219.46,285.59,187.84,267.86,156.94Zm-107.6-9.39c-32.5,1.07-35.56,51.74.51,54C198.46,201.52,196.79,147.23,160.26,147.55Zm-6.53,78.69c22.73-.56,23-17.84-2.61-16.71C127.91,211.13,131.85,226.86,153.73,226.24Zm94.5-18.8c-20.55-.73-26.63,16.05-.68,16.55C269.65,224.44,273,207.44,248.23,207.44Zm-45.8,33.87c-13-1.42-19.48,18.64-11.32,8.58,6.31-9.21,17.44-4.41,25.82-1.55C218.12,243.81,207.85,242,202.43,241.31Zm42.35-133.13c-1.52,1.5-3.49,2.42,2.19,4.44C292.36,138.07,251.17,111.81,244.78,108.18ZM136.16,131.37a174.36,174.36,0,0,1,23.19-14.31C163.91,108.7,136.44,127.58,136.16,131.37Z"/>
        <path class="cls-2" d="M301.43,139.47c-51.16-106-197.73-70-200.19,39.73,3.38,122.82,164.7,141.24,203.27,32.11-24.58,114.88-204.54,93-207.06-28.16C97.39,46.33,279,42.76,301.43,139.47Z"/>
        <path class="cls-5" d="M267.91,156.79c18.67,36-28.48,61.68-49.62,30.75C199.66,153.43,246.77,126.55,267.91,156.79Zm-5.84,3.58c.33-.41,1.44-1.41-.85-1.17-19.79-22-50.79,2.49-36.68,25.84C243,211.06,277.07,184,262.07,160.37Zm-3.68-19.28c-.07.1-.32-.44-.48.19C258,141.18,258.22,141.72,258.39,141.09Z"/>
        <path class="cls-5" d="M160.26,147.55c39.11.85,36.41,56.54-2.08,53.9C125.84,196.26,127.06,149.83,160.26,147.55Zm22.18,27.72c-1.21-28.79-40.49-26.66-41.71-.82C141.92,203.77,181.5,201.47,182.44,175.27Z"/>
        <path class="cls-6" d="M153.73,226.24c-24,.86-24.36-16.17.25-16.81C176.85,209.33,176,225.65,153.73,226.24Z"/>
        <path class="cls-6" d="M248.23,207.44a30.23,30.23,0,0,1,13,2.42C284.11,235.74,190.83,218.79,248.23,207.44Z"/>
        <path class="cls-2" d="M202.43,241.31c2.28.22,18.24,2.28,13.62,7.52-5.11-3.32-12.6-6.21-20-3.07C177.9,263.35,191.57,239.33,202.43,241.31Z"/>
        <path class="cls-2" d="M244.78,108.18c4.5,3.45,23.7,12.76,22.22,15.7C261.26,118,238.54,111.93,244.78,108.18Z"/>
        <path class="cls-2" d="M136.16,131.37c-2.13-.5,22.65-20.13,23.53-16.33C157,121,142.43,125,136.16,131.37Z"/>
        <path class="cls-5" d="M309.26,181.09c.26.14.57.25.53.63C309.64,181.62,308.53,182,309.26,181.09Z"/>
        <path class="cls-5" d="M245.36,289.28c-.43.14-.66-1.4,0,0Z"/>
        <path class="cls-2" d="M262.07,160.37c14.9,25.47-18.43,47.51-36.25,26.47C207.48,161.82,243.63,136,262.07,160.37Z"/>
        <path class="cls-4" d="M262.07,160.37l-.85-1.17C260.84,159.42,263.72,158.87,262.07,160.37Z"/>
        <path class="cls-4" d="M258.39,141.09c-.12,0,.07.54-.48.19C258,141.31,257.83,140.74,258.39,141.09Z"/>
        <path class="cls-2" d="M182.44,175.27c-1.91,27.83-39.11,26.14-41.63,1.47C139.65,146.28,182.56,148.12,182.44,175.27Z"/>
        <path class="cls-4" d="M269.16,140.69c-.11,0,.08.54-.47.19C268.8,140.91,268.61,140.34,269.16,140.69Z"/>
      </g>
    </g>
  </g>
</svg>
