<svg xmlns="http://www.w3.org/2000/svg" width="25.68" height="25.68" viewBox="0 0 26.68 26.68">
  <path id="Icon_ionic-ios-close-circle" data-name="Icon ionic-ios-close-circle" d="M16.215,3.375a12.84,12.84,0,1,0,12.84,12.84A12.838,12.838,0,0,0,16.215,3.375Zm3.253,17.488L16.215,17.61l-3.253,3.253a.986.986,0,1,1-1.4-1.4l3.253-3.253-3.253-3.253a.986.986,0,0,1,1.4-1.4l3.253,3.253,3.253-3.253a.986.986,0,0,1,1.4,1.4L17.61,16.215l3.253,3.253a.991.991,0,0,1,0,1.4A.98.98,0,0,1,19.468,20.863Z" transform="translate(-3.375 -3.375)" fill="#4867ae"/>
</svg>
