<svg xmlns="http://www.w3.org/2000/svg" width="17.195" height="16.478" viewBox="0 0 17.195 16.478">
  <g id="send_1_" data-name="send (1)" transform="translate(0 0)">
    <path id="Path_40" data-name="Path 40" d="M8.75,17.612v3.323a.537.537,0,0,0,.97.318l1.944-2.645Z" transform="translate(-2.481 -4.994)" fill="#fff"/>
    <path id="Path_41" data-name="Path 41" d="M16.969.1a.538.538,0,0,0-.56-.039L.289,8.479a.538.538,0,0,0,.075.985L4.845,11l9.544-8.16L7,11.733,14.514,14.3a.55.55,0,0,0,.173.029.537.537,0,0,0,.532-.458L17.189.617A.538.538,0,0,0,16.969.1Z" transform="translate(0)" fill="#fff"/>
  </g>
</svg>
