<svg xmlns="http://www.w3.org/2000/svg" width="40" height="40" viewBox="0 0 40 40">
  <g id="settings" transform="translate(-0.014)">
    <circle id="Ellipse_56" data-name="Ellipse 56" cx="20" cy="20" r="20" transform="translate(0.014)" fill="#4867ae"/>
    <path id="Icon_awesome-user-cog" data-name="Icon awesome-user-cog" d="M23.722,14.505a4.558,4.558,0,0,0,0-1.655l1-.579a.281.281,0,0,0,.128-.33,5.831,5.831,0,0,0-1.29-2.23.283.283,0,0,0-.35-.054l-1,.579a4.562,4.562,0,0,0-1.434-.828V8.249a.283.283,0,0,0-.221-.276,5.863,5.863,0,0,0-2.572,0,.283.283,0,0,0-.221.276V9.407a4.562,4.562,0,0,0-1.434.828l-1-.579a.284.284,0,0,0-.35.054,5.831,5.831,0,0,0-1.29,2.23.286.286,0,0,0,.128.33l1,.579a4.558,4.558,0,0,0,0,1.655l-1,.579a.281.281,0,0,0-.128.33,5.86,5.86,0,0,0,1.29,2.23.283.283,0,0,0,.35.054l1-.579a4.562,4.562,0,0,0,1.434.828v1.158a.283.283,0,0,0,.221.276,5.863,5.863,0,0,0,2.572,0,.283.283,0,0,0,.221-.276V17.948a4.562,4.562,0,0,0,1.434-.828l1,.579a.284.284,0,0,0,.35-.054,5.831,5.831,0,0,0,1.29-2.23.286.286,0,0,0-.128-.33l-1-.579Zm-4.449,1.057a1.885,1.885,0,1,1,1.885-1.885A1.886,1.886,0,0,1,19.273,15.562ZM8.7,9.947A4.974,4.974,0,1,0,3.73,4.974,4.973,4.973,0,0,0,8.7,9.947Zm7.818,8.8c-.089-.047-.179-.1-.264-.152l-.307.179a1.524,1.524,0,0,1-1.885-.284,7.085,7.085,0,0,1-1.562-2.7,1.52,1.52,0,0,1,.7-1.776l.307-.179q-.006-.152,0-.3l-.307-.179a1.518,1.518,0,0,1-.7-1.776c.035-.113.085-.225.124-.338-.148-.012-.291-.047-.443-.047h-.649a6.764,6.764,0,0,1-5.665,0H5.222A5.224,5.224,0,0,0,0,16.413v1.616a1.866,1.866,0,0,0,1.865,1.865H15.543a1.863,1.863,0,0,0,1.057-.33,1.513,1.513,0,0,1-.078-.459Z" transform="translate(9.627 9.412)" fill="#fff"/>
  </g>
</svg>
