<svg xmlns="http://www.w3.org/2000/svg" width="17.943" height="20" viewBox="0 0 17.943 20">
  <g id="vault-icon" transform="translate(-0.17)">
    <g id="_003---Safe" data-name="003---Safe" transform="translate(0.17)">
      <path id="Shape" d="M1.5,17.967v.7A1.333,1.333,0,0,0,2.836,20H6.113a1.333,1.333,0,0,0,1.333-1.333V18H10.78v.667A1.333,1.333,0,0,0,12.113,20h3.278a1.333,1.333,0,0,0,1.333-1.333v-.695a1.667,1.667,0,0,0,1.389-1.639V1.667A1.669,1.669,0,0,0,16.447,0H1.837A1.669,1.669,0,0,0,.17,1.667V3A.333.333,0,1,0,.837,3V1.667a1,1,0,0,1,1-1h14.61a1,1,0,0,1,1,1V16.333a1,1,0,0,1-1,1H1.837a1,1,0,0,1-1-1V4.667a.333.333,0,1,0-.667,0V16.333A1.67,1.67,0,0,0,1.5,17.967ZM16.058,18v.667a.667.667,0,0,1-.667.667H12.113a.667.667,0,0,1-.667-.667V18ZM6.78,18v.667a.667.667,0,0,1-.667.667H2.836a.667.667,0,0,1-.667-.667V18Z" transform="translate(-0.17)" fill="#080e1c"/>
      <path id="Shape-2" data-name="Shape" d="M7.333,16A.333.333,0,0,0,7,16.333v3a1,1,0,0,0,1,1H19.333a1,1,0,0,0,1-1V19a1,1,0,0,0,1-1V16a1,1,0,0,0-1-1V12.333a1,1,0,0,0,1-1v-2a1,1,0,0,0-1-1V8a1,1,0,0,0-1-1H8A1,1,0,0,0,7,8v6.667a.333.333,0,1,0,.667,0V8A.333.333,0,0,1,8,7.667H19.333A.333.333,0,0,1,19.667,8v.333a1,1,0,0,0-1,1v2a1,1,0,0,0,1,1V15a1,1,0,0,0-1,1v2a1,1,0,0,0,1,1v.333a.333.333,0,0,1-.333.333H8a.333.333,0,0,1-.333-.333v-3A.333.333,0,0,0,7.333,16Zm12-4.667v-2A.333.333,0,0,1,19.667,9h.667a.333.333,0,0,1,.333.333v2a.333.333,0,0,1-.333.333h-.667A.333.333,0,0,1,19.333,11.333Zm0,6.667V16a.333.333,0,0,1,.333-.333h.667a.333.333,0,0,1,.333.333v2a.333.333,0,0,1-.333.333h-.667A.333.333,0,0,1,19.333,18Z" transform="translate(-4.723 -4.667)" fill="#080e1c"/>
      <path id="Shape-3" data-name="Shape" d="M15.3,20.53a4,4,0,1,0,0-3.061,4,4,0,0,0,0,3.061Zm2.118-4.467.121.293a.333.333,0,1,0,.616-.255l-.121-.293a3.3,3.3,0,0,1,1.923,0l-.121.293a.333.333,0,1,0,.616.255l.121-.293a3.3,3.3,0,0,1,1.359,1.36l-.293.121a.333.333,0,1,0,.255.616l.293-.121a3.3,3.3,0,0,1,0,1.923l-.293-.121a.333.333,0,1,0-.255.616l.293.121a3.3,3.3,0,0,1-1.36,1.359l-.121-.293a.333.333,0,1,0-.616.255l.121.293a3.3,3.3,0,0,1-1.923,0l.121-.293a.333.333,0,1,0-.616-.255l-.121.293a3.3,3.3,0,0,1-1.359-1.36l.293-.121a.333.333,0,1,0-.255-.616l-.293.121a3.3,3.3,0,0,1,0-1.923l.293.121a.333.333,0,1,0,.255-.616l-.293-.121a3.3,3.3,0,0,1,1.36-1.36Z" transform="translate(-10.052 -9.999)" fill="#080e1c"/>
      <path id="Shape-4" data-name="Shape" d="M23,25a2,2,0,1,0-1.85-1.233A2,2,0,0,0,23,25Zm-.513-3.233a1.33,1.33,0,1,1-.724.721,1.333,1.333,0,0,1,.724-.721Z" transform="translate(-14.056 -14)" fill="#080e1c"/>
      <path id="Shape-5" data-name="Shape" d="M13,11H11.333a.333.333,0,0,0-.333.333V13a.333.333,0,1,0,.667,0V11.667H13A.333.333,0,1,0,13,11Z" transform="translate(-7.39 -7.333)" fill="#080e1c"/>
    </g>
  </g>
</svg>
