<svg xmlns="http://www.w3.org/2000/svg" width="56" height="56" viewBox="0 0 56 56">
  <g id="verify" transform="translate(-0.489 -0.475)">
    <circle id="Ellipse_56" data-name="Ellipse 56" cx="28" cy="28" r="28" transform="translate(0.489 0.475)" fill="#4867ae"/>
    <path id="Icon_awesome-user-check" data-name="Icon awesome-user-check" d="M11.3,12.919A6.459,6.459,0,1,0,4.845,6.459,6.459,6.459,0,0,0,11.3,12.919Zm4.522,1.615h-.843a8.785,8.785,0,0,1-7.358,0H6.782A6.784,6.784,0,0,0,0,21.316v2.1a2.423,2.423,0,0,0,2.422,2.422H20.186a2.423,2.423,0,0,0,2.422-2.422v-2.1A6.784,6.784,0,0,0,15.825,14.534Zm16.3-6.48-1.4-1.418a.6.6,0,0,0-.848-.005l-5.289,5.248-2.3-2.311a.6.6,0,0,0-.848-.005l-1.418,1.408a.6.6,0,0,0-.005.848l4.123,4.153a.6.6,0,0,0,.848.005L32.12,8.9a.6.6,0,0,0,.005-.848Z" transform="translate(14.94 15.556)" fill="#fff"/>
  </g>
</svg>
